<?xml version="1.0" encoding="UTF-8"?>
<svg version="1.1" xmlns="http://www.w3.org/2000/svg" width="333" height="333">
<path d="M0 0 C1.32 0 2.64 0 4 0 C4.04658639 9.68463383 4.08200169 19.36922838 4.10362434 29.05395031 C4.11400837 33.55220215 4.12806779 38.05037664 4.15087891 42.54858398 C4.17280107 46.89931803 4.18460895 51.24997825 4.18975449 55.60076332 C4.1934158 57.25072706 4.20056407 58.90068731 4.21146011 60.55061913 C4.29687842 74.03612889 3.34701428 86.54067258 -1.375 99.3125 C-1.81199219 100.55483398 -1.81199219 100.55483398 -2.2578125 101.82226562 C-3.92623431 106.46530789 -5.8196496 110.8525019 -8.15478516 115.19995117 C-9.05142265 117.10951449 -9.55279136 118.94278359 -10 121 C-10.66 121 -11.32 121 -12 121 C-12.103125 121.53625 -12.20625 122.0725 -12.3125 122.625 C-13.18092697 125.62502044 -14.55620296 128.2379535 -16 131 C-16.66 131 -17.32 131 -18 131 C-18.22042969 131.6909375 -18.44085938 132.381875 -18.66796875 133.09375 C-20.33589912 136.7328708 -22.703436 139.51326273 -25.3125 142.5 C-25.78623047 143.05558594 -26.25996094 143.61117187 -26.74804688 144.18359375 C-30.92877344 149.04490371 -35.3910299 153.55412519 -40.1875 157.8125 C-41.19876953 158.71935547 -41.19876953 158.71935547 -42.23046875 159.64453125 C-44 161 -44 161 -46 161 C-46 161.66 -46 162.32 -46 163 C-48.3857808 164.68336818 -50.76079506 166.23295699 -53.25 167.75 C-53.97783691 168.19811035 -54.70567383 168.6462207 -55.45556641 169.10791016 C-61.47095228 172.76732492 -67.58836422 176.08147447 -74 179 C-75.34384766 179.61875 -75.34384766 179.61875 -76.71484375 180.25 C-83.03229121 182.98597725 -88.25084011 184.17413767 -94.9453125 181.71484375 C-96.34466175 181.13699971 -97.73779292 180.54391451 -99.125 179.9375 C-99.858396 179.62675537 -100.59179199 179.31601074 -101.34741211 178.99584961 C-108.12479217 176.06709787 -114.59391317 172.66539577 -121 169 C-121 168.34 -121 167.68 -121 167 C-123.97 166.01 -123.97 166.01 -127 165 C-127 164.34 -127 163.68 -127 163 C-127.57234375 162.731875 -128.1446875 162.46375 -128.734375 162.1875 C-131.07884634 160.95867364 -133.12404938 159.57477824 -135.25 158 C-135.95640625 157.484375 -136.6628125 156.96875 -137.390625 156.4375 C-137.92171875 155.963125 -138.4528125 155.48875 -139 155 C-139 154.34 -139 153.68 -139 153 C-139.66 153 -140.32 153 -141 153 C-141 152.34 -141 151.68 -141 151 C-141.66 151 -142.32 151 -143 151 C-143 150.34 -143 149.68 -143 149 C-143.66 149 -144.32 149 -145 149 C-146.9453125 146.8828125 -146.9453125 146.8828125 -149.125 144.125 C-149.84945312 143.22007812 -150.57390625 142.31515625 -151.3203125 141.3828125 C-153 139 -153 139 -153 137 C-153.66 137 -154.32 137 -155 137 C-156.5078125 135.13671875 -156.5078125 135.13671875 -158.125 132.6875 C-158.66382813 131.88699219 -159.20265625 131.08648437 -159.7578125 130.26171875 C-161 128 -161 128 -161 125 C-161.66 125 -162.32 125 -163 125 C-169.33183985 113.14464028 -174.22704865 101.01570261 -177.375 87.9375 C-177.54273926 87.24760986 -177.71047852 86.55771973 -177.88330078 85.84692383 C-178.8640241 81.49820408 -179.15043265 77.4493349 -179 73 C-155.69307542 63.16228258 -155.69307542 63.16228258 -144.25268555 58.98022461 C-139.61868277 57.27244663 -135.16189768 55.30294094 -130.69140625 53.2109375 C-126.67971274 51.40596655 -122.57351873 49.87449819 -118.4609375 48.31640625 C-110.40961561 45.253996 -102.36772462 42.15101961 -94.5625 38.5 C-90.38160738 36.56236409 -86.13753077 34.8948814 -81.8125 33.3125 C-73.57724011 30.29910427 -65.50337597 26.92388891 -57.42504883 23.51489258 C-41.95968238 17 -41.95968238 17 -38 17 C-37.9487579 23.57955551 -37.91404208 30.15905846 -37.89013672 36.73876953 C-37.88015753 38.97121097 -37.8665694 41.2036396 -37.84912109 43.43603516 C-37.6155668 74.11407872 -37.6155668 74.11407872 -42.75 87.6875 C-43.13599365 88.74795532 -43.13599365 88.74795532 -43.52978516 89.82983398 C-45.79551497 95.8633174 -48.64635971 101.49384591 -52 107 C-52.66 107 -53.32 107 -54 107 C-54.28875 107.763125 -54.5775 108.52625 -54.875 109.3125 C-56 112 -56 112 -58 115 C-58.66 115 -59.32 115 -60 115 C-60.37125 115.86625 -60.37125 115.86625 -60.75 116.75 C-62.18299988 119.32939979 -63.78424676 121.06121592 -66 123 C-66.66 123 -67.32 123 -68 123 C-68 123.66 -68 124.32 -68 125 C-68.66 125 -69.32 125 -70 125 C-70 125.66 -70 126.32 -70 127 C-71.86362875 128.40651227 -73.79302631 129.72656258 -75.75 131 C-76.81734375 131.70125 -77.8846875 132.4025 -78.984375 133.125 C-79.97953125 133.74375 -80.9746875 134.3625 -82 135 C-82.68578125 135.433125 -83.3715625 135.86625 -84.078125 136.3125 C-86.79700915 137.28510896 -88.25456241 136.87188934 -91 136 C-93.1424416 134.92743513 -95.24652869 133.77584823 -97.3125 132.5625 C-98.38113281 131.94503906 -99.44976562 131.32757813 -100.55078125 130.69140625 C-101.35902344 130.13324219 -102.16726562 129.57507813 -103 129 C-103 128.34 -103 127.68 -103 127 C-103.66 127 -104.32 127 -105 127 C-105 126.34 -105 125.68 -105 125 C-105.85851562 124.62875 -105.85851562 124.62875 -106.734375 124.25 C-109.35010611 122.80683801 -111.14773456 121.11783778 -113.25 119 C-114.30960938 117.948125 -114.30960938 117.948125 -115.390625 116.875 C-117 115 -117 115 -117 113 C-117.66 113 -118.32 113 -119 113 C-120.45194365 111.11947058 -121.81364605 109.16863151 -123.125 107.1875 C-123.84945312 106.10855469 -124.57390625 105.02960938 -125.3203125 103.91796875 C-127 101 -127 101 -127 98 C-125.55367187 97.49339844 -125.55367187 97.49339844 -124.078125 96.9765625 C-122.80203525 96.52617788 -121.52599624 96.07564947 -120.25 95.625 C-119.61578125 95.40328125 -118.9815625 95.1815625 -118.328125 94.953125 C-115.70357548 94.02359704 -113.16671131 93.08560851 -110.6875 91.8125 C-109 91 -109 91 -106.75 91.375 C-106.1725 91.58125 -105.595 91.7875 -105 92 C-104.67 93.32 -104.34 94.64 -104 96 C-103.34 96 -102.68 96 -102 96 C-100.7734375 97.50390625 -100.7734375 97.50390625 -99.375 99.5625 C-96.12421089 104.07659081 -92.30125166 107.50659764 -88 111 C-86.39179588 109.58791833 -84.78859292 108.17013964 -83.1875 106.75 C-82.29417969 105.96109375 -81.40085937 105.1721875 -80.48046875 104.359375 C-77.99430466 102.13050012 -77.99430466 102.13050012 -76.30078125 99.703125 C-75.87152344 99.14109375 -75.44226563 98.5790625 -75 98 C-74.34 98 -73.68 98 -73 98 C-72.773125 97.360625 -72.54625 96.72125 -72.3125 96.0625 C-71.21905385 93.51112566 -70.03050092 91.31604002 -68.625 88.9375 C-61.6158049 76.22170357 -60.89003562 63.23333379 -60 49 C-60.50499023 49.26047119 -61.00998047 49.52094238 -61.53027344 49.78930664 C-65.70276469 51.91327912 -69.85378463 53.80864584 -74.25 55.4375 C-78.4300012 57.01278109 -82.57349834 58.63468029 -86.6875 60.375 C-91.77492561 62.52062513 -96.90903887 64.52047558 -102.0625 66.5 C-107.02907234 68.40931304 -111.93115865 70.36149697 -116.75 72.625 C-121.89930677 75.04169919 -127.19671277 76.87388603 -132.56640625 78.73828125 C-136.63092385 80.23184119 -140.51065771 81.99329939 -144.40234375 83.88671875 C-147.53362407 85.22869603 -150.71322522 86.1168053 -154 87 C-153.25669983 89.16897425 -152.50499679 91.33506945 -151.75 93.5 C-151.33234375 94.7065625 -150.9146875 95.913125 -150.484375 97.15625 C-147.8192749 104.34897603 -144.01353056 110.84096123 -139.9375 117.3125 C-139.50373047 118.01439453 -139.06996094 118.71628906 -138.62304688 119.43945312 C-138.19958984 120.11556641 -137.77613281 120.79167969 -137.33984375 121.48828125 C-136.77317993 122.39380737 -136.77317993 122.39380737 -136.19506836 123.31762695 C-135.02585027 125.07211571 -135.02585027 125.07211571 -133.35375977 126.59448242 C-132 128 -132 128 -132 130 C-131.34 130 -130.68 130 -130 130 C-130 130.66 -130 131.32 -130 132 C-129.34 132 -128.68 132 -128 132 C-128 132.66 -128 133.32 -128 134 C-127.34 134 -126.68 134 -126 134 C-126 134.66 -126 135.32 -126 136 C-125.34 136 -124.68 136 -124 136 C-124 136.66 -124 137.32 -124 138 C-123.34 138 -122.68 138 -122 138 C-122 138.66 -122 139.32 -122 140 C-121.34 140 -120.68 140 -120 140 C-120 140.66 -120 141.32 -120 142 C-119.236875 142.28875 -118.47375 142.5775 -117.6875 142.875 C-115 144 -115 144 -112 146 C-112 146.66 -112 147.32 -112 148 C-110.02 148.66 -108.04 149.32 -106 150 C-106 150.66 -106 151.32 -106 152 C-105.4740625 152.10054687 -104.948125 152.20109375 -104.40625 152.3046875 C-100.06942381 153.5578613 -96.12506056 155.81390334 -92.09375 157.8203125 C-88.92966193 159.02682083 -88.0271186 159.24876815 -85 158 C-83.865625 157.649375 -82.73125 157.29875 -81.5625 156.9375 C-72.42295126 153.44196363 -64.18560961 147.46596124 -56.70703125 141.25 C-55 140 -55 140 -53 140 C-53 139.34 -53 138.68 -53 138 C-52.34 138 -51.68 138 -51 138 C-51 137.34 -51 136.68 -51 136 C-50.34 136 -49.68 136 -49 136 C-49 135.34 -49 134.68 -49 134 C-48.34 134 -47.68 134 -47 134 C-47 133.34 -47 132.68 -47 132 C-46.34 132 -45.68 132 -45 132 C-44.62875 131.195625 -44.62875 131.195625 -44.25 130.375 C-42.69347463 127.4176018 -40.96564327 124.70275949 -39 122 C-38.34 122 -37.68 122 -37 122 C-36.34 120.02 -35.68 118.04 -35 116 C-34.34 116 -33.68 116 -33 116 C-32.72800781 115.13246094 -32.45601562 114.26492187 -32.17578125 113.37109375 C-31.04326702 110.1240513 -29.69396021 107.15094218 -28.1875 104.0625 C-17.50587721 81.02780244 -17.67689379 59.05924524 -17.48431396 34.09130859 C-17.44817595 29.5008193 -17.39759543 24.91063559 -17.34375 20.3203125 C-17.3384729 19.11214874 -17.3331958 17.90398499 -17.32775879 16.65921021 C-17.31434448 15.54980072 -17.30093018 14.44039124 -17.28710938 13.29736328 C-17.27981812 12.31970001 -17.27252686 11.34203674 -17.26501465 10.33474731 C-17 8 -17 8 -15 6 C-12.65229996 5.08653126 -10.322608 4.23887726 -7.9375 3.4375 C-3.64035367 2.26792089 -3.64035367 2.26792089 0 0 Z " fill="#6403EF" transform="translate(254,103)"/>
<path d="M0 0 C1.01964844 0.45117188 2.03929687 0.90234375 3.08984375 1.3671875 C4.15332031 1.84414063 5.21679688 2.32109375 6.3125 2.8125 C8.5598496 3.75633581 10.80975561 4.69411389 13.0625 5.625 C14.8125 6.35416667 16.5625 7.08333333 18.3125 7.8125 C18.3125 8.8025 18.3125 9.7925 18.3125 10.8125 C17.50167969 11.11542969 16.69085938 11.41835938 15.85546875 11.73046875 C10.45001401 13.77560588 5.10667748 15.85283074 -0.125 18.3125 C-5.28014757 20.71373322 -10.55021435 22.59322118 -15.9375 24.40625 C-18.85212024 25.44501778 -21.62631044 26.68754427 -24.4296875 27.99609375 C-32.73729802 31.82633645 -41.29318342 35.0517988 -49.8125 38.375 C-52.35708303 39.36875825 -54.90128833 40.36344393 -57.44454956 41.36058044 C-59.01432892 41.97595116 -60.58485013 42.5894345 -62.15628052 43.20057678 C-66.78547767 45.01410953 -71.32204826 46.96888637 -75.83297729 49.06040955 C-77.6875 49.8125 -77.6875 49.8125 -79.6875 49.8125 C-79.3575 56.7425 -79.0275 63.6725 -78.6875 70.8125 C-73.903363 68.91272717 -69.11995766 67.01128006 -64.33813477 65.10571289 C-62.71612031 64.45989744 -61.09373345 63.81501641 -59.47094727 63.17114258 C-51.20637468 59.89130758 -43.00074428 56.57373068 -34.93481445 52.82495117 C-30.86719108 50.99242166 -26.66369584 49.64102745 -22.4375 48.21875 C-19.52009043 47.17910295 -16.7434741 45.9348876 -13.9375 44.625 C-4.85251186 40.43622473 4.53307862 36.95256313 13.8515625 33.32373047 C16.33950766 32.35368219 18.8264129 31.38105001 21.3125 30.40625 C22.1075293 30.09461914 22.90255859 29.78298828 23.72167969 29.46191406 C28.06178306 27.74665271 32.33054021 25.94019575 36.5625 23.96875 C37.40522461 23.58750977 38.24794922 23.20626953 39.11621094 22.81347656 C40.98665865 21.96100484 42.84614495 21.08454871 44.703125 20.203125 C50.71260828 19.55274802 55.61599219 22.20589823 61.0625 24.5625 C62.19816406 25.03171875 63.33382812 25.5009375 64.50390625 25.984375 C72.71019345 29.4109623 72.71019345 29.4109623 76.3125 31.8125 C76.3125 32.4725 76.3125 33.1325 76.3125 33.8125 C75.28511719 34.18761719 74.25773438 34.56273437 73.19921875 34.94921875 C66.12132553 37.55519373 59.18198126 40.25599143 52.3515625 43.46484375 C47.6165906 45.56454209 42.77181024 47.37175954 37.93505859 49.22192383 C33.74288825 50.83568497 29.62971974 52.52422208 25.5625 54.4375 C20.39914348 56.86079309 15.0852382 58.6947276 9.703125 60.5703125 C5.83035488 61.98913842 2.15097407 63.67546634 -1.578125 65.4296875 C-5.5620482 67.20143224 -9.6159521 68.75504304 -13.6875 70.3125 C-18.63156811 72.20466796 -23.51817515 74.12268123 -28.3125 76.375 C-33.29504594 78.70985307 -38.40949614 80.61584339 -43.5703125 82.50976562 C-48.04882622 84.16486852 -52.43673185 85.95968061 -56.8125 87.875 C-61.44858324 89.90031964 -66.0971832 91.71134235 -70.875 93.375 C-76.09286088 95.19396379 -81.07762845 97.27349423 -86.08203125 99.609375 C-88.74248119 100.83788862 -91.41805611 102.00270502 -94.125 103.125 C-94.90746094 103.45113281 -95.68992187 103.77726562 -96.49609375 104.11328125 C-98.6875 104.8125 -98.6875 104.8125 -102.6875 104.8125 C-102.6875 81.7125 -102.6875 58.6125 -102.6875 34.8125 C-90.2791955 29.17236159 -90.2791955 29.17236159 -84.3125 26.8125 C-83.68311523 26.56250244 -83.05373047 26.31250488 -82.40527344 26.05493164 C-78.26354371 24.41519359 -74.10310558 22.82818074 -69.9375 21.25 C-65.07363296 19.39342636 -60.36013939 17.32400888 -55.64208984 15.12744141 C-52.69628018 13.81640762 -49.72871975 12.65424605 -46.7109375 11.51953125 C-42.02286783 9.73249479 -37.38002597 7.86900467 -32.7578125 5.91796875 C-31.04078125 5.19770508 -31.04078125 5.19770508 -29.2890625 4.46289062 C-26.94444569 3.47630748 -24.6033509 2.48131765 -22.265625 1.47851562 C-21.12867188 1.00478516 -19.99171875 0.53105469 -18.8203125 0.04296875 C-17.30268311 -0.60055542 -17.30268311 -0.60055542 -15.75439453 -1.25708008 C-9.99076786 -3.00562181 -5.40992499 -2.45219752 0 0 Z " fill="#ECEBEC" transform="translate(175.6875,49.1875)"/>
</svg>
